<svg xmlns="http://www.w3.org/2000/svg" version="1.1" xmlns:xlink="http://www.w3.org/1999/xlink" xmlns:svgjs="http://svgjs.dev/svgjs" width="1000" height="270" viewBox="0 0 1000 270"><g transform="matrix(1,0,0,1,-0.6060606060606233,-0.45941553317757666)"><svg viewBox="0 0 396 107" data-background-color="#ffffff" preserveAspectRatio="xMidYMid meet" height="270" width="1000" xmlns="http://www.w3.org/2000/svg" xmlns:xlink="http://www.w3.org/1999/xlink"><g id="tight-bounds" transform="matrix(1,0,0,1,0.2400000000000091,0.18206467425926576)"><svg viewBox="0 0 395.52 106.63587017276237" height="106.63587017276237" width="395.52"><g><svg viewBox="0 0 395.52 106.63587017276237" height="106.63587017276237" width="395.52"><g><svg viewBox="0 0 395.52 106.63587017276237" height="106.63587017276237" width="395.52"><g transform="matrix(1,0,0,1,0,65.90524578570776)"><svg viewBox="0 0 395.52 40.7306243870546" height="40.7306243870546" width="395.52"><g><svg viewBox="0 0 395.52 40.7306243870546" height="40.7306243870546" width="395.52"><g><svg viewBox="0 0 395.52 40.7306243870546" height="40.7306243870546" width="395.52"><g transform="matrix(1,0,0,1,0,0)"><svg width="395.52" viewBox="5 -35.5 349.57000732421875 36.00178527832031" height="40.7306243870546" data-palette-color="#4d7e3e"><path d="M5.95-35L5.95-35Q6.2-35 6.45-34.9 6.7-34.8 6.9-34.55L6.9-34.55 21.25-13.2 20.25-13.2 34.6-34.55Q35-35.1 35.55-35L35.55-35Q35.95-34.95 36.2-34.68 36.45-34.4 36.45-34L36.45-34 36.45-1Q36.45-0.6 36.13-0.3 35.8 0 35.4 0L35.4 0Q34.95 0 34.65-0.3 34.35-0.6 34.35-1L34.35-1 34.35-31.75 34.9-31.75 21.45-11.4Q21.35-11.2 21.18-11.1 21-11 20.75-11L20.75-11Q20.5-11 20.28-11.1 20.05-11.2 19.95-11.4L19.95-11.4 6.2-32.15 7-32.15 7-1Q7-0.6 6.7-0.3 6.4 0 6 0L6 0Q5.55 0 5.28-0.3 5-0.6 5-1L5-1 5-34Q5-34.35 5.25-34.68 5.5-35 5.95-35ZM48.55-33.95L48.55-1.05Q48.5-0.6 48.2-0.3 47.9 0 47.5 0L47.5 0Q47 0 46.72-0.3 46.45-0.6 46.45-1.05L46.45-1.05 46.45-33.95Q46.45-34.4 46.75-34.7 47.05-35 47.5-35L47.5-35Q47.95-35 48.25-34.7 48.55-34.4 48.55-33.95L48.55-33.95ZM59.55-35L72.55-35Q76.3-35 79.05-33.58 81.8-32.15 83.57-29.68 85.35-27.2 86.2-24.05 87.05-20.9 87.05-17.5L87.05-17.5Q87.05-12.7 85.52-8.72 84-4.75 80.8-2.38 77.6 0 72.55 0L72.55 0 59.55 0Q59.15 0 58.85-0.3 58.55-0.6 58.55-1L58.55-1 58.55-34Q58.55-34.4 58.85-34.7 59.15-35 59.55-35L59.55-35ZM60.35-2L72.05-2Q76.65-2 79.47-4.08 82.3-6.15 83.62-9.68 84.95-13.2 84.95-17.5L84.95-17.5Q84.95-20.55 84.22-23.35 83.5-26.15 81.95-28.33 80.4-30.5 77.95-31.75 75.5-33 72.05-33L72.05-33 60.35-33 60.65-33.4 60.65-1.55 60.35-2ZM125.44-17.5L125.44-17.5Q125.44-13.5 124.22-10.2 122.99-6.9 120.74-4.5 118.49-2.1 115.44-0.8 112.39 0.5 108.74 0.5L108.74 0.5Q105.09 0.5 102.04-0.8 98.99-2.1 96.74-4.5 94.49-6.9 93.27-10.2 92.04-13.5 92.04-17.5L92.04-17.5Q92.04-21.5 93.27-24.8 94.49-28.1 96.74-30.5 98.99-32.9 102.04-34.2 105.09-35.5 108.74-35.5L108.74-35.5Q112.39-35.5 115.44-34.2 118.49-32.9 120.74-30.5 122.99-28.1 124.22-24.8 125.44-21.5 125.44-17.5ZM123.34-17.5L123.34-17.5Q123.34-22.3 121.47-25.9 119.59-29.5 116.32-31.5 113.04-33.5 108.74-33.5L108.74-33.5Q104.49-33.5 101.19-31.5 97.89-29.5 96.02-25.9 94.14-22.3 94.14-17.5L94.14-17.5Q94.14-12.7 96.02-9.1 97.89-5.5 101.19-3.5 104.49-1.5 108.74-1.5L108.74-1.5Q113.04-1.5 116.32-3.5 119.59-5.5 121.47-9.1 123.34-12.7 123.34-17.5ZM133.99 0L133.99 0Q133.49 0 133.22-0.3 132.94-0.6 132.94-1L132.94-1 132.94-34Q132.94-34.4 133.24-34.7 133.54-35 133.94-35L133.94-35 147.14-35Q150.09-35 152.32-33.83 154.54-32.65 155.79-30.6 157.04-28.55 157.04-25.95L157.04-25.95Q157.04-23.65 156.22-21.8 155.39-19.95 153.92-18.73 152.44-17.5 150.54-16.95L150.54-16.95 148.24-17.35Q150.24-17.35 152.04-16.32 153.84-15.3 154.99-13.33 156.14-11.35 156.14-8.5L156.14-8.5Q156.14-6.05 156.37-4.78 156.59-3.5 156.97-2.9 157.34-2.3 157.84-1.95L157.84-1.95Q158.14-1.75 158.29-1.45 158.44-1.15 158.34-0.75L158.34-0.75Q158.24-0.45 158.02-0.28 157.79-0.1 157.54-0.05 157.29 0 156.99-0.15L156.99-0.15Q156.29-0.55 155.62-1.35 154.94-2.15 154.49-3.8 154.04-5.45 154.04-8.5L154.04-8.5Q154.04-10.85 153.32-12.25 152.59-13.65 151.47-14.4 150.34-15.15 149.07-15.4 147.79-15.65 146.74-15.65L146.74-15.65 134.59-15.65 135.04-16.25 135.04-1Q135.04-0.6 134.74-0.3 134.44 0 133.99 0ZM135.04-17.1L134.54-17.65 147.39-17.65Q149.39-17.85 151.09-18.85 152.79-19.85 153.87-21.65 154.94-23.45 154.94-25.9L154.94-25.9Q154.94-28.95 152.77-30.98 150.59-33 146.89-33L146.89-33 134.79-33 135.04-33.35 135.04-17.1ZM168.24-33.95L168.24-1.05Q168.19-0.6 167.89-0.3 167.59 0 167.19 0L167.19 0Q166.69 0 166.41-0.3 166.14-0.6 166.14-1.05L166.14-1.05 166.14-33.95Q166.14-34.4 166.44-34.7 166.74-35 167.19-35L167.19-35Q167.64-35 167.94-34.7 168.24-34.4 168.24-33.95L168.24-33.95ZM192.73-35L206.18-35Q210.18-35 212.58-32.7 214.98-30.4 214.98-26.5L214.98-26.5Q214.98-24.45 214.16-22.53 213.33-20.6 211.73-19.35 210.13-18.1 207.78-17.9L207.78-17.9 207.43-18.5Q209.38-18.5 211.08-17.93 212.78-17.35 214.03-16.2 215.28-15.05 216.01-13.38 216.73-11.7 216.73-9.45L216.73-9.45Q216.73-7.05 215.93-5.28 215.13-3.5 213.73-2.33 212.33-1.15 210.48-0.58 208.63 0 206.53 0L206.53 0 192.73 0Q192.33 0 192.03-0.3 191.73-0.6 191.73-1L191.73-1 191.73-34Q191.73-34.4 192.03-34.7 192.33-35 192.73-35L192.73-35ZM205.93-33L205.93-33 193.28-33 193.83-33.95 193.83-18.1 193.33-18.95 205.93-18.95Q208.88-19 210.88-20.9 212.88-22.8 212.88-26.55L212.88-26.55Q212.88-29.45 211.08-31.23 209.28-33 205.93-33ZM206.28-16.9L206.28-16.9 193.63-16.9 193.83-17.2 193.83-1.6 193.58-2 206.28-2Q209.83-2 212.23-3.78 214.63-5.55 214.63-9.45L214.63-9.45Q214.63-12.05 213.53-13.7 212.43-15.35 210.53-16.13 208.63-16.9 206.28-16.9ZM255.13-17.5L255.13-17.5Q255.13-13.5 253.91-10.2 252.68-6.9 250.43-4.5 248.18-2.1 245.13-0.8 242.08 0.5 238.43 0.5L238.43 0.5Q234.78 0.5 231.73-0.8 228.68-2.1 226.43-4.5 224.18-6.9 222.96-10.2 221.73-13.5 221.73-17.5L221.73-17.5Q221.73-21.5 222.96-24.8 224.18-28.1 226.43-30.5 228.68-32.9 231.73-34.2 234.78-35.5 238.43-35.5L238.43-35.5Q242.08-35.5 245.13-34.2 248.18-32.9 250.43-30.5 252.68-28.1 253.91-24.8 255.13-21.5 255.13-17.5ZM253.03-17.5L253.03-17.5Q253.03-22.3 251.16-25.9 249.28-29.5 246.01-31.5 242.73-33.5 238.43-33.5L238.43-33.5Q234.18-33.5 230.88-31.5 227.58-29.5 225.71-25.9 223.83-22.3 223.83-17.5L223.83-17.5Q223.83-12.7 225.71-9.1 227.58-5.5 230.88-3.5 234.18-1.5 238.43-1.5L238.43-1.5Q242.73-1.5 246.01-3.5 249.28-5.5 251.16-9.1 253.03-12.7 253.03-17.5ZM293.53-17.5L293.53-17.5Q293.53-13.5 292.3-10.2 291.08-6.9 288.83-4.5 286.58-2.1 283.53-0.8 280.48 0.5 276.83 0.5L276.83 0.5Q273.18 0.5 270.13-0.8 267.08-2.1 264.83-4.5 262.58-6.9 261.35-10.2 260.13-13.5 260.13-17.5L260.13-17.5Q260.13-21.5 261.35-24.8 262.58-28.1 264.83-30.5 267.08-32.9 270.13-34.2 273.18-35.5 276.83-35.5L276.83-35.5Q280.48-35.5 283.53-34.2 286.58-32.9 288.83-30.5 291.08-28.1 292.3-24.8 293.53-21.5 293.53-17.5ZM291.43-17.5L291.43-17.5Q291.43-22.3 289.55-25.9 287.68-29.5 284.4-31.5 281.13-33.5 276.83-33.5L276.83-33.5Q272.58-33.5 269.28-31.5 265.98-29.5 264.1-25.9 262.23-22.3 262.23-17.5L262.23-17.5Q262.23-12.7 264.1-9.1 265.98-5.5 269.28-3.5 272.58-1.5 276.83-1.5L276.83-1.5Q281.13-1.5 284.4-3.5 287.68-5.5 289.55-9.1 291.43-12.7 291.43-17.5ZM326.33 0.25L326.33 0.25Q325.93 0.25 325.63-0.1L325.63-0.1 310.53-18.8 312.13-20.4 327.23-1.5Q327.48-1.15 327.48-0.8L327.48-0.8Q327.48-0.2 327.05 0.03 326.63 0.25 326.33 0.25ZM325.43-34.8L325.43-34.8Q325.83-34.8 326.13-34.5 326.43-34.2 326.43-33.8L326.43-33.8Q326.43-33.4 326.13-33.1L326.13-33.1 302.83-11.4 302.38-13.55 324.73-34.5Q325.03-34.8 325.43-34.8ZM302.08 0L302.08 0Q301.58 0 301.3-0.3 301.03-0.6 301.03-1.05L301.03-1.05 301.03-33.95Q301.03-34.4 301.33-34.7 301.63-35 302.08-35L302.08-35Q302.53-35 302.83-34.7 303.13-34.4 303.13-33.95L303.13-33.95 303.13-1.05Q303.08-0.6 302.78-0.3 302.48 0 302.08 0ZM343.77 0.5L343.77 0.5Q339.87 0.55 337.07-0.8 334.27-2.15 331.67-4.75L331.67-4.75Q331.57-4.85 331.47-5.03 331.37-5.2 331.37-5.5L331.37-5.5Q331.37-5.9 331.72-6.28 332.07-6.65 332.47-6.65L332.47-6.65Q332.92-6.65 333.32-6.2L333.32-6.2Q335.32-3.9 338-2.7 340.67-1.5 343.57-1.5L343.57-1.5Q346.12-1.5 348.12-2.33 350.12-3.15 351.27-4.67 352.42-6.2 352.42-8.25L352.42-8.25Q352.37-10.8 351.02-12.35 349.67-13.9 347.55-14.9 345.42-15.9 343.07-16.75L343.07-16.75Q341.22-17.45 339.42-18.2 337.62-18.95 336.17-20.03 334.72-21.1 333.87-22.73 333.02-24.35 333.02-26.75L333.02-26.75Q333.02-29.2 334.35-31.18 335.67-33.15 338.15-34.33 340.62-35.5 344.02-35.5L344.02-35.5Q346.87-35.5 349.57-34.48 352.27-33.45 353.82-31.4L353.82-31.4Q354.32-30.7 354.32-30.35L354.32-30.35Q354.32-30 353.95-29.65 353.57-29.3 353.12-29.3L353.12-29.3Q352.72-29.3 352.47-29.6L352.47-29.6Q351.57-30.8 350.3-31.68 349.02-32.55 347.42-33.02 345.82-33.5 344.02-33.5L344.02-33.5Q341.57-33.5 339.57-32.7 337.57-31.9 336.37-30.43 335.17-28.95 335.17-26.8L335.17-26.8Q335.17-24.5 336.5-23.03 337.82-21.55 339.87-20.58 341.92-19.6 344.07-18.8L344.07-18.8Q345.97-18.15 347.85-17.38 349.72-16.6 351.25-15.45 352.77-14.3 353.67-12.55 354.57-10.8 354.57-8.15L354.57-8.15Q354.57-5.85 353.25-3.9 351.92-1.95 349.52-0.75 347.12 0.45 343.77 0.5Z" opacity="1" transform="matrix(1,0,0,1,0,0)" fill="#4d7e3e" class="undefined-text-0" data-fill-palette-color="primary" id="text-0"></path></svg></g></svg></g></svg></g></svg></g><g transform="matrix(1,0,0,1,152.6677443727713,0)"><svg viewBox="0 0 90.18451125445738 56.28972290290946" height="56.28972290290946" width="90.18451125445738"><g><svg xmlns="http://www.w3.org/2000/svg" xmlns:xlink="http://www.w3.org/1999/xlink" version="1.1" x="8" y="0" viewBox="3.1549999713897705 21.599998474121094 94.30500030517578 71.55674743652344" enable-background="new 0 0 100 100" xml:space="preserve" height="56.28972290290946" width="74.18451125445738" class="icon-icon-0" data-fill-palette-color="accent" id="icon-0"><path fill-rule="evenodd" clip-rule="evenodd" d="M3.155 93.083c0-2.603 0-5.204 0-7.804 3.521 0 7.041-0.004 10.561 0.006 0.298 0.003 0.443-0.074 0.557-0.369 1.381-3.562 2.779-7.116 4.173-10.672 6.561-16.745 13.121-33.492 19.683-50.237 0.096-0.244 0.201-0.485 0.298-0.719 0.431 0.303 0.806 0.618 1.225 0.854 2.42 1.357 4.949 2.479 7.595 3.315 0.669 0.211 1.381 0.312 2.083 0.4 0.414 0.053 0.511-0.093 0.511-0.51 0.001-1.705 0.001-3.411 0.001-5.115 0-0.131 0-0.262 0-0.403 0.104-0.006 0.164-0.018 0.223-0.012 1.325 0.147 2.645 0.365 3.974 0.431 2.864 0.144 5.731 0.25 8.599 0.296 3.442 0.055 6.891 0.071 10.326-0.225 0.801-0.069 1.618-0.095 2.362-0.477 0.063-0.034 0.212-0.037 0.235 0 0.279 0.445 0.749 0.44 1.174 0.495 2.479 0.314 4.969 0.303 7.453 0.12 0.85-0.063 1.693-0.249 2.529-0.429 0.215-0.046 0.392-0.28 0.583-0.428 0.1 0 0.198 0 0.295 0 0.813 21.218 1.627 42.434 2.442 63.681 2.496 0 4.959 0 7.422 0 0 2.6 0 5.201 0 7.804-0.17 0.003-0.343 0.011-0.513 0.011-31.117 0-62.234 0-93.351 0C3.449 93.094 3.302 93.086 3.155 93.083zM49.828 28.525c-0.022-0.003-0.046-0.007-0.068-0.011-7.41 18.909-14.819 37.817-22.236 56.741 7.46 0 14.875 0 22.304 0C49.828 66.33 49.828 47.427 49.828 28.525zM39.212 30.451c-4.218 10.767-8.415 21.476-12.623 32.212 1.431 0.562 2.817 1.104 4.237 1.662 4.211-10.747 8.413-21.469 12.625-32.215C42.028 31.553 40.643 31.01 39.212 30.451zM71.047 33.125c-5.562 0-11.1 0-16.628 0 0 2.477 0 4.925 0 7.375 5.553 0 11.083 0 16.628 0C71.047 38.033 71.047 35.585 71.047 33.125zM75.661 25.618c-0.01 0-0.019 0.001-0.026 0.001 0 19.877 0 39.755 0 59.637 0.779 0 1.533 0 2.31 0C77.185 65.361 76.424 45.49 75.661 25.618zM80.087 75.662c2.526-0.096 5.006-0.188 7.523-0.287-0.05-1.259-0.097-2.477-0.146-3.728-2.541 0.1-5.027 0.195-7.526 0.293C79.987 73.205 80.037 74.402 80.087 75.662z" fill="#4d7e3e" data-fill-palette-color="accent"></path><path fill-rule="evenodd" clip-rule="evenodd" d="M3.155 93.083c0.147 0.003 0.294 0.011 0.441 0.011 31.117 0 62.234 0 93.351 0 0.17 0 0.343-0.008 0.513-0.011-0.01 0.023-0.021 0.068-0.038 0.07-0.097 0.006-0.193 0.003-0.29 0.003-31.217 0-62.431 0-93.646-0.003C3.376 93.153 3.266 93.106 3.155 93.083z" fill="#4d7e3e" data-fill-palette-color="accent"></path></svg></g></svg></g><g><rect width="152.6677443727713" height="3.673129741228951" y="51.61659316168051" x="242.85225562722866" fill="#4d7e3e" data-fill-palette-color="accent"></rect><rect width="152.6677443727713" height="3.673129741228951" y="51.61659316168051" x="0" fill="#4d7e3e" data-fill-palette-color="accent"></rect><rect width="152.6677443727713" height="3.673129741228951" y="44.27033367922261" x="242.85225562722866" fill="#4d7e3e" data-fill-palette-color="accent"></rect><rect width="152.6677443727713" height="3.673129741228951" y="44.27033367922261" x="0" fill="#4d7e3e" data-fill-palette-color="accent"></rect></g></svg></g></svg></g><defs></defs></svg><rect width="395.52" height="106.63587017276237" fill="none" stroke="none" visibility="hidden"></rect></g></svg></g></svg>