<svg xmlns="http://www.w3.org/2000/svg" xmlns:xlink="http://www.w3.org/1999/xlink" viewBox="0 0 59.00725799999999 44.77352679035025" height="44.77352679035025" width="59.00725799999999" data-background-color="#ffffff" preserveAspectRatio="xMidYMid meet" id="tight-bounds"><g><svg viewBox="0 0 59.00725799999999 44.77352679035025" height="44.77352679035025" width="59.00725799999999"><g><svg viewBox="0 0 59.00725799999999 44.77352679035025" height="44.77352679035025" width="59.00725799999999"><g><svg viewBox="0 0 59.00725799999999 44.77352679035025" height="44.77352679035025" width="59.00725799999999"><g><svg viewBox="0 0 59.00725799999999 44.77352679035025" height="44.77352679035025" width="59.00725799999999"><g><svg viewBox="0 0 59.00725799999999 44.77352679035025" height="44.77352679035025" width="59.00725799999999"><g><svg viewBox="0 0 59.00725799999999 44.77352679035025" height="44.77352679035025" width="59.00725799999999"><g><svg xmlns="http://www.w3.org/2000/svg" xmlns:xlink="http://www.w3.org/1999/xlink" version="1.1" x="0" y="0" viewBox="3.1549999713897705 21.599998474121094 94.30500030517578 71.55674743652344" enable-background="new 0 0 100 100" xml:space="preserve" height="44.77352679035025" width="59.00725799999999" class="icon-icon-0" data-fill-palette-color="accent" id="icon-0"><path fill-rule="evenodd" clip-rule="evenodd" d="M3.155 93.083c0-2.603 0-5.204 0-7.804 3.521 0 7.041-0.004 10.561 0.006 0.298 0.003 0.443-0.074 0.557-0.369 1.381-3.562 2.779-7.116 4.173-10.672 6.561-16.745 13.121-33.492 19.683-50.237 0.096-0.244 0.201-0.485 0.298-0.719 0.431 0.303 0.806 0.618 1.225 0.854 2.42 1.357 4.949 2.479 7.595 3.315 0.669 0.211 1.381 0.312 2.083 0.4 0.414 0.053 0.511-0.093 0.511-0.51 0.001-1.705 0.001-3.411 0.001-5.115 0-0.131 0-0.262 0-0.403 0.104-0.006 0.164-0.018 0.223-0.012 1.325 0.147 2.645 0.365 3.974 0.431 2.864 0.144 5.731 0.25 8.599 0.296 3.442 0.055 6.891 0.071 10.326-0.225 0.801-0.069 1.618-0.095 2.362-0.477 0.063-0.034 0.212-0.037 0.235 0 0.279 0.445 0.749 0.44 1.174 0.495 2.479 0.314 4.969 0.303 7.453 0.12 0.85-0.063 1.693-0.249 2.529-0.429 0.215-0.046 0.392-0.28 0.583-0.428 0.1 0 0.198 0 0.295 0 0.813 21.218 1.627 42.434 2.442 63.681 2.496 0 4.959 0 7.422 0 0 2.6 0 5.201 0 7.804-0.17 0.003-0.343 0.011-0.513 0.011-31.117 0-62.234 0-93.351 0C3.449 93.094 3.302 93.086 3.155 93.083zM49.828 28.525c-0.022-0.003-0.046-0.007-0.068-0.011-7.41 18.909-14.819 37.817-22.236 56.741 7.46 0 14.875 0 22.304 0C49.828 66.33 49.828 47.427 49.828 28.525zM39.212 30.451c-4.218 10.767-8.415 21.476-12.623 32.212 1.431 0.562 2.817 1.104 4.237 1.662 4.211-10.747 8.413-21.469 12.625-32.215C42.028 31.553 40.643 31.01 39.212 30.451zM71.047 33.125c-5.562 0-11.1 0-16.628 0 0 2.477 0 4.925 0 7.375 5.553 0 11.083 0 16.628 0C71.047 38.033 71.047 35.585 71.047 33.125zM75.661 25.618c-0.01 0-0.019 0.001-0.026 0.001 0 19.877 0 39.755 0 59.637 0.779 0 1.533 0 2.31 0C77.185 65.361 76.424 45.49 75.661 25.618zM80.087 75.662c2.526-0.096 5.006-0.188 7.523-0.287-0.05-1.259-0.097-2.477-0.146-3.728-2.541 0.1-5.027 0.195-7.526 0.293C79.987 73.205 80.037 74.402 80.087 75.662z" fill="#4d7e3e" data-fill-palette-color="accent"/><path fill-rule="evenodd" clip-rule="evenodd" d="M3.155 93.083c0.147 0.003 0.294 0.011 0.441 0.011 31.117 0 62.234 0 93.351 0 0.17 0 0.343-0.008 0.513-0.011-0.01 0.023-0.021 0.068-0.038 0.07-0.097 0.006-0.193 0.003-0.29 0.003-31.217 0-62.431 0-93.646-0.003C3.376 93.153 3.266 93.106 3.155 93.083z" fill="#4d7e3e" data-fill-palette-color="accent"/></svg></g></svg></g></svg></g></svg></g></svg></g><g/></svg></g></svg></g><defs/></svg>