<?xml version="1.0" standalone="no"?>
<!DOCTYPE svg PUBLIC "-//W3C//DTD SVG 20010904//EN"
 "http://www.w3.org/TR/2001/REC-SVG-20010904/DTD/svg10.dtd">
<svg version="1.0" xmlns="http://www.w3.org/2000/svg"
 width="944.000000pt" height="944.000000pt" viewBox="0 0 944.000000 944.000000"
 preserveAspectRatio="xMidYMid meet">
<metadata>
Created by potrace 1.14, written by Peter Selinger 2001-2017
</metadata>
<g transform="translate(0.000000,944.000000) scale(0.100000,-0.100000)"
fill="#000000" stroke="none">
<path d="M8400 8280 c-12 -11 -39 -23 -59 -27 -47 -9 -51 -10 -53 -13 -3 -2
-28 -6 -83 -14 -200 -28 -638 -28 -835 0 -74 11 -84 14 -105 34 -19 18 -26 19
-51 9 -16 -7 -33 -11 -37 -10 -4 0 -16 -3 -25 -8 -23 -12 -138 -23 -387 -37
-173 -10 -857 -10 -1140 0 -528 18 -585 21 -840 53 -27 3 -63 6 -80 7 l-30 1
-1 -294 c-2 -319 0 -313 -58 -306 -110 11 -327 70 -388 105 -10 6 -22 10 -28
10 -33 0 -476 209 -550 260 -14 9 -33 20 -42 23 -10 4 -18 11 -18 17 0 5 -5
10 -12 10 -6 0 -19 7 -29 16 -17 15 -19 14 -33 -21 -9 -21 -16 -41 -16 -45 0
-5 -7 -21 -15 -37 -23 -44 -49 -110 -60 -153 -3 -9 -25 -65 -35 -85 -5 -11
-34 -85 -65 -165 -31 -80 -60 -154 -65 -165 -5 -11 -45 -112 -89 -225 -44
-113 -86 -221 -94 -240 -26 -65 -30 -75 -32 -82 -2 -5 -4 -10 -5 -13 -1 -3 -3
-8 -5 -12 -1 -5 -5 -17 -10 -28 -5 -11 -36 -92 -71 -180 -34 -88 -87 -225
-119 -305 -75 -190 -181 -461 -207 -530 -12 -30 -26 -64 -32 -75 -5 -11 -11
-24 -12 -30 -2 -9 -97 -257 -119 -310 -5 -11 -9 -22 -10 -25 -1 -3 -5 -14 -10
-25 -4 -11 -25 -63 -45 -115 -20 -52 -41 -104 -45 -115 -4 -11 -9 -24 -11 -30
-1 -5 -16 -42 -33 -82 -17 -40 -31 -79 -31 -87 0 -9 -4 -16 -10 -16 -5 0 -9
-3 -8 -7 2 -7 -87 -245 -127 -338 -20 -49 -169 -429 -172 -440 -2 -8 -63 -164
-98 -250 -5 -11 -9 -22 -9 -25 -2 -6 -45 -115 -62 -155 -7 -16 -36 -91 -65
-165 -28 -74 -57 -148 -64 -165 -18 -40 -29 -78 -27 -87 1 -5 -2 -8 -8 -8 -5
0 -10 -4 -10 -9 0 -10 -119 -318 -144 -376 -8 -16 -17 -41 -21 -55 -4 -14 -15
-43 -25 -65 -10 -22 -52 -130 -95 -240 -173 -446 -227 -581 -239 -593 -11 -11
-118 -14 -555 -14 l-541 0 2 -391 3 -392 4718 -3 4717 -2 0 395 0 395 -371 -1
-372 -1 -3 78 c-14 282 -15 320 -13 347 0 6 -2 71 -5 142 -3 72 -8 184 -11
250 -2 66 -7 188 -10 270 -3 83 -8 209 -11 280 -3 72 -7 177 -9 235 -5 163
-15 413 -20 540 -3 63 -7 180 -10 260 -10 281 -15 396 -20 511 -7 146 -15 366
-20 529 -3 69 -7 181 -10 250 -2 69 -7 188 -10 266 -2 77 -8 207 -11 290 -3
82 -7 187 -9 234 -1 47 -3 85 -4 85 -1 0 -4 72 -6 160 -5 160 -8 236 -20 525
-3 85 -8 218 -11 295 -3 77 -6 181 -8 230 -16 408 -19 487 -20 537 -1 65 -15
74 -56 38z m-1130 -494 c0 -3 -4 -8 -10 -11 -5 -3 -10 -1 -10 4 0 6 5 11 10
11 6 0 10 -2 10 -4z m-3 -103 c0 -27 4 -124 7 -218 4 -93 9 -217 11 -275 2
-58 6 -170 9 -250 8 -192 16 -388 21 -535 2 -66 6 -176 9 -245 3 -69 8 -188
11 -265 3 -77 8 -205 11 -285 3 -80 7 -194 9 -255 2 -60 7 -171 10 -245 3 -74
8 -198 10 -275 10 -256 14 -368 20 -530 4 -88 8 -200 10 -250 2 -49 6 -157 9
-240 4 -82 8 -211 11 -285 3 -74 8 -193 11 -265 5 -139 9 -239 19 -515 3 -96
8 -218 10 -270 5 -114 16 -425 19 -495 l1 -50 -112 -3 c-86 -2 -113 0 -114 10
-5 48 -3 5788 2 5788 3 0 6 -21 6 -47z m-2596 -2870 c0 -1533 0 -2809 -1
-2835 l0 -48 -1115 0 -1115 0 25 68 c14 37 29 76 34 87 5 11 21 49 35 85 13
36 30 79 37 95 7 17 13 32 14 35 2 12 67 178 80 205 8 17 27 67 44 110 16 44
68 177 114 295 47 118 109 278 139 355 30 77 58 149 63 160 4 11 10 29 12 39
2 11 9 26 15 34 7 8 13 19 14 26 1 9 72 194 119 311 5 11 9 22 10 25 1 3 7 19
14 35 7 17 28 71 47 120 18 50 41 103 49 118 8 16 15 37 15 47 0 10 4 21 8 24
5 3 17 32 28 65 10 34 22 61 26 61 5 0 8 7 8 15 0 12 47 136 80 210 7 17 21
57 25 75 1 3 7 16 13 30 6 14 38 93 70 175 32 83 63 159 67 170 5 11 9 22 9
25 3 10 128 326 142 357 8 17 14 35 14 40 0 6 6 23 14 39 7 16 37 90 66 164
28 74 56 144 61 155 4 11 34 85 64 165 86 221 115 293 125 312 6 10 10 23 10
30 0 7 6 24 13 38 7 14 20 45 29 70 10 25 23 59 29 75 7 17 13 32 14 35 1 3 5
12 8 20 13 31 30 75 33 85 3 13 99 256 124 315 10 25 53 135 96 245 42 110 84
218 94 240 9 22 30 74 46 117 16 42 31 75 32 73 2 -2 4 -1258 3 -2792z m-921
2547 c68 -28 130 -50 137 -50 7 0 13 -4 13 -8 0 -5 6 -9 13 -9 6 -1 35 -10 62
-20 39 -15 50 -24 48 -40 -2 -16 -103 -283 -163 -428 -34 -85 -132 -335 -136
-350 -2 -9 -86 -218 -104 -260 -26 -58 -38 -95 -33 -95 3 0 1 -6 -5 -12 -5 -7
-39 -89 -75 -183 -36 -93 -84 -215 -107 -270 -22 -55 -42 -104 -44 -110 -5
-17 -16 -45 -67 -173 -27 -67 -49 -129 -49 -137 0 -8 -5 -15 -10 -15 -6 0 -9
-3 -8 -7 1 -5 -7 -33 -19 -63 -27 -69 -167 -428 -178 -455 -5 -11 -9 -22 -10
-25 -1 -3 -5 -14 -10 -25 -4 -11 -41 -105 -82 -210 -41 -104 -90 -228 -109
-275 -19 -47 -34 -91 -34 -99 0 -9 -8 -11 -27 -6 -27 6 -277 103 -340 131 -17
8 -36 14 -41 14 -22 0 -24 23 -7 63 38 91 43 103 56 142 7 22 17 45 21 51 5 7
10 20 13 30 2 11 11 36 19 56 9 21 15 39 14 40 -1 2 5 14 12 28 8 14 15 27 15
30 1 7 74 197 91 235 12 30 85 214 229 585 42 107 82 209 89 225 8 17 17 41
21 55 4 14 15 43 25 65 34 78 94 240 92 248 -1 4 3 7 8 7 6 0 10 10 10 23 0
13 4 27 9 32 5 6 35 78 66 160 32 83 63 164 70 180 7 17 54 136 104 265 51
129 95 244 100 255 9 20 38 94 84 215 14 36 31 79 38 95 7 17 13 32 14 35 18
52 46 110 53 110 4 0 63 -23 132 -50z m3045 -582 l0 -368 -75 0 c-76 -1 -1526
-1 -1567 0 l-23 0 0 363 c0 200 2 366 5 369 3 2 377 4 833 4 l828 0 -1 -368z
m1649 -3598 c5 -114 8 -226 7 -250 -1 -12 -19 -15 -94 -16 -50 -1 -168 -4
-262 -8 -93 -4 -221 -9 -282 -11 l-113 -4 -1 42 c0 23 -2 67 -4 97 -7 122 -7
221 -1 228 4 4 35 8 69 9 86 2 344 12 512 19 77 3 142 7 144 10 13 13 21 -22
25 -116z"/>
</g>
</svg>
